<svg xmlns="http://www.w3.org/2000/svg" viewBox="0 0 64 64" width="64" height="64">
  <!-- Wings -->
  <ellipse cx="16" cy="26" rx="12" ry="7" fill="rgba(186,225,255,0.85)" stroke="#90CAF9" stroke-width="1.2"/>
  <ellipse cx="48" cy="26" rx="12" ry="7" fill="rgba(186,225,255,0.85)" stroke="#90CAF9" stroke-width="1.2"/>

  <!-- Body -->
  <ellipse cx="32" cy="40" rx="13" ry="16" fill="#FFC107"/>

  <!-- Stripes -->
  <rect x="19.5" y="33" width="25" height="5" rx="2.5" fill="#212121"/>
  <rect x="19.5" y="42" width="25" height="5" rx="2.5" fill="#212121"/>

  <!-- Stinger -->
  <ellipse cx="32" cy="55.5" rx="4" ry="2.5" fill="#E65100"/>

  <!-- Head -->
  <circle cx="32" cy="20" r="10" fill="#FFC107"/>

  <!-- Eyes -->
  <circle cx="27.5" cy="18.5" r="2.5" fill="#212121"/>
  <circle cx="36.5" cy="18.5" r="2.5" fill="#212121"/>
  <circle cx="28.2" cy="17.8" r="0.9" fill="white"/>
  <circle cx="37.2" cy="17.8" r="0.9" fill="white"/>

  <!-- Smile -->
  <path d="M28 23 Q32 26.5 36 23" stroke="#212121" stroke-width="1.4" fill="none" stroke-linecap="round"/>

  <!-- Antennae -->
  <line x1="28" y1="11" x2="21" y2="4" stroke="#212121" stroke-width="1.8" stroke-linecap="round"/>
  <circle cx="21" cy="4" r="2" fill="#FFC107" stroke="#212121" stroke-width="1.2"/>
  <line x1="36" y1="11" x2="43" y2="4" stroke="#212121" stroke-width="1.8" stroke-linecap="round"/>
  <circle cx="43" cy="4" r="2" fill="#FFC107" stroke="#212121" stroke-width="1.2"/>
</svg>
